<svg xmlns="http://www.w3.org/2000/svg" viewBox="0 0 175.216 175.552"><path d="M87.6 0C39.3 0 0 39.3 0 87.6c0 15.3 4 29.7 10.9 42.2L0 175.6l47-12.3c12 6.4 25.6 10 40 10 48.3 0 87.6-39.3 87.6-87.6S135.9 0 87.6 0z" fill="#25D366"/><path d="M129.8 112.5c-2-1-11.7-5.8-13.5-6.4-1.8-.6-3.2-1-4.5.9-1.3 1.9-5.1 6.4-6.3 7.7-1.1 1.3-2.3 1.4-4.2.5-1.9-1-8.2-3-15.6-9.6-5.8-5.1-9.6-11.4-10.8-13.4-1.1-1.9-.1-3 .8-3.9.9-.9 1.9-2.3 2.9-3.4 1-1.1 1.3-1.9 2-3.2.6-1.3.3-2.4-.2-3.4-.5-1-4.5-10.8-6.1-14.8-1.6-3.9-3.3-3.4-4.5-3.4-1.2 0-2.5-.2-3.8-.2s-3.4.5-5.2 2.4c-1.8 1.9-6.8 6.6-6.8 16.2 0 9.6 7 18.8 7.9 20.1.9 1.3 13.7 21 33.3 29.5 4.7 2 8.3 3.2 11.1 4.1 4.7 1.5 8.9 1.3 12.3.8 3.7-.6 11.7-4.8 13.4-9.4 1.7-4.6 1.7-8.6 1.2-9.4-.5-.8-1.8-1.3-3.8-2.3z" fill="#fff"/></svg>
